<mxfile host="app.diagrams.net" agent="Mozilla/5.0 (Windows NT 10.0; Win64; x64) AppleWebKit/537.36 (KHTML, like Gecko) Chrome/140.0.0.0 Safari/537.36" version="28.2.0">
  <diagram name="第 1 页" id="vDawm4YZumrsR6bcLfa0">
    <mxGraphModel dx="1426" dy="785" grid="1" gridSize="10" guides="1" tooltips="1" connect="1" arrows="1" fold="1" page="1" pageScale="1" pageWidth="827" pageHeight="1169" math="0" shadow="0">
      <root>
        <mxCell id="0" />
        <mxCell id="1" parent="0" />
        <mxCell id="PIP6HgccSq_4A6i_9czS-1" value="" style="ellipse;whiteSpace=wrap;html=1;aspect=fixed;" vertex="1" parent="1">
          <mxGeometry x="210" y="100" width="240" height="240" as="geometry" />
        </mxCell>
        <mxCell id="PIP6HgccSq_4A6i_9czS-2" value="" style="ellipse;whiteSpace=wrap;html=1;aspect=fixed;fillColor=#f5f5f5;strokeColor=#666666;gradientColor=#b3b3b3;shadow=0;" vertex="1" parent="1">
          <mxGeometry x="245" y="160" width="170" height="170" as="geometry" />
        </mxCell>
        <mxCell id="PIP6HgccSq_4A6i_9czS-3" value="" style="ellipse;whiteSpace=wrap;html=1;aspect=fixed;fillColor=#dae8fc;strokeColor=#6c8ebf;gradientColor=#7ea6e0;" vertex="1" parent="1">
          <mxGeometry x="270" y="200" width="120" height="120" as="geometry" />
        </mxCell>
        <mxCell id="PIP6HgccSq_4A6i_9czS-4" value="" style="ellipse;whiteSpace=wrap;html=1;aspect=fixed;fillColor=#d5e8d4;strokeColor=#82b366;gradientColor=#97d077;" vertex="1" parent="1">
          <mxGeometry x="290" y="230" width="80" height="80" as="geometry" />
        </mxCell>
        <mxCell id="PIP6HgccSq_4A6i_9czS-8" value="" style="whiteSpace=wrap;html=1;aspect=fixed;" vertex="1" parent="1">
          <mxGeometry x="510" y="170" width="20" height="20" as="geometry" />
        </mxCell>
        <mxCell id="PIP6HgccSq_4A6i_9czS-9" value="有答案的问题S&lt;sub&gt;4&lt;/sub&gt;" style="text;html=1;align=center;verticalAlign=middle;resizable=0;points=[];autosize=1;strokeColor=none;fillColor=none;" vertex="1" parent="1">
          <mxGeometry x="550" y="165" width="110" height="30" as="geometry" />
        </mxCell>
        <mxCell id="PIP6HgccSq_4A6i_9czS-10" value="" style="whiteSpace=wrap;html=1;aspect=fixed;fillColor=#B3B3B3;" vertex="1" parent="1">
          <mxGeometry x="510" y="205" width="20" height="20" as="geometry" />
        </mxCell>
        <mxCell id="PIP6HgccSq_4A6i_9czS-11" value="可计算问题S&lt;sub&gt;5&lt;/sub&gt;" style="text;html=1;align=center;verticalAlign=middle;resizable=0;points=[];autosize=1;strokeColor=none;fillColor=none;" vertex="1" parent="1">
          <mxGeometry x="555" y="205" width="100" height="30" as="geometry" />
        </mxCell>
        <mxCell id="PIP6HgccSq_4A6i_9czS-12" value="" style="whiteSpace=wrap;html=1;aspect=fixed;fillColor=#dae8fc;gradientColor=#7ea6e0;strokeColor=#6c8ebf;" vertex="1" parent="1">
          <mxGeometry x="510" y="245" width="20" height="20" as="geometry" />
        </mxCell>
        <mxCell id="PIP6HgccSq_4A6i_9czS-13" value="工程可解问题S&lt;sub&gt;6&lt;/sub&gt;" style="text;html=1;align=center;verticalAlign=middle;resizable=0;points=[];autosize=1;strokeColor=none;fillColor=none;" vertex="1" parent="1">
          <mxGeometry x="550" y="240" width="110" height="30" as="geometry" />
        </mxCell>
        <mxCell id="PIP6HgccSq_4A6i_9czS-14" value="" style="whiteSpace=wrap;html=1;aspect=fixed;fillColor=#d5e8d4;gradientColor=#97d077;strokeColor=#82b366;" vertex="1" parent="1">
          <mxGeometry x="510" y="285" width="20" height="20" as="geometry" />
        </mxCell>
        <mxCell id="PIP6HgccSq_4A6i_9czS-15" value="人工智能可解问题S&lt;sub&gt;7&lt;/sub&gt;" style="text;html=1;align=center;verticalAlign=middle;resizable=0;points=[];autosize=1;strokeColor=none;fillColor=none;" vertex="1" parent="1">
          <mxGeometry x="540" y="280" width="130" height="30" as="geometry" />
        </mxCell>
      </root>
    </mxGraphModel>
  </diagram>
</mxfile>
